<mxfile host="Electron" modified="2024-06-13T18:32:57.795Z" agent="Mozilla/5.0 (Macintosh; Intel Mac OS X 10_15_7) AppleWebKit/537.36 (KHTML, like Gecko) draw.io/24.5.3 Chrome/124.0.6367.207 Electron/30.0.6 Safari/537.36" etag="fXuShAodyJDis-s-icl-" version="24.5.3" type="device">
  <diagram name="Page-1" id="li0dxYPri9A2t-78d1cD">
    <mxGraphModel dx="1089" dy="1151" grid="1" gridSize="10" guides="1" tooltips="1" connect="1" arrows="1" fold="1" page="1" pageScale="1" pageWidth="850" pageHeight="1100" math="0" shadow="0">
      <root>
        <mxCell id="0" />
        <mxCell id="1" parent="0" />
        <mxCell id="pbghTy7w4NZwHaQQN_qX-1" value="" style="shape=note;whiteSpace=wrap;html=1;backgroundOutline=1;darkOpacity=0.05;verticalAlign=bottom;fillColor=#dae8fc;strokeColor=#6c8ebf;" vertex="1" parent="1">
          <mxGeometry x="40" y="200" width="90" height="120" as="geometry" />
        </mxCell>
        <mxCell id="pbghTy7w4NZwHaQQN_qX-2" value="" style="sketch=0;pointerEvents=1;shadow=0;dashed=0;html=1;strokeColor=#666666;fillColor=#f5f5f5;labelPosition=center;verticalLabelPosition=bottom;verticalAlign=top;outlineConnect=0;align=center;shape=mxgraph.office.concepts.script;fontColor=#333333;" vertex="1" parent="1">
          <mxGeometry x="250" y="200" width="53" height="49" as="geometry" />
        </mxCell>
        <mxCell id="pbghTy7w4NZwHaQQN_qX-3" value="" style="sketch=0;pointerEvents=1;shadow=0;dashed=0;html=1;strokeColor=#666666;fillColor=#f5f5f5;labelPosition=center;verticalLabelPosition=bottom;verticalAlign=top;outlineConnect=0;align=center;shape=mxgraph.office.concepts.script;fontColor=#333333;" vertex="1" parent="1">
          <mxGeometry x="260" y="235.5" width="53" height="49" as="geometry" />
        </mxCell>
        <mxCell id="pbghTy7w4NZwHaQQN_qX-4" value="" style="sketch=0;pointerEvents=1;shadow=0;dashed=0;html=1;strokeColor=#666666;fillColor=#f5f5f5;labelPosition=center;verticalLabelPosition=bottom;verticalAlign=top;outlineConnect=0;align=center;shape=mxgraph.office.concepts.script;fontColor=#333333;" vertex="1" parent="1">
          <mxGeometry x="280" y="271" width="53" height="49" as="geometry" />
        </mxCell>
        <mxCell id="pbghTy7w4NZwHaQQN_qX-5" value="" style="verticalLabelPosition=bottom;sketch=0;html=1;fillColor=#A153A0;strokeColor=#ffffff;verticalAlign=top;align=center;points=[[0,0.5,0],[0.125,0.25,0],[0.25,0,0],[0.5,0,0],[0.75,0,0],[0.875,0.25,0],[1,0.5,0],[0.875,0.75,0],[0.75,1,0],[0.5,1,0],[0.125,0.75,0]];pointerEvents=1;shape=mxgraph.cisco_safe.compositeIcon;bgIcon=mxgraph.cisco_safe.design.blank_device;resIcon=mxgraph.cisco_safe.design.wide_area_application_engine_2;" vertex="1" parent="1">
          <mxGeometry x="440" y="200" width="140" height="120" as="geometry" />
        </mxCell>
        <mxCell id="pbghTy7w4NZwHaQQN_qX-6" value="" style="sketch=0;points=[[0,0,0],[0.25,0,0],[0.5,0,0],[0.75,0,0],[1,0,0],[0,1,0],[0.25,1,0],[0.5,1,0],[0.75,1,0],[1,1,0],[0,0.25,0],[0,0.5,0],[0,0.75,0],[1,0.25,0],[1,0.5,0],[1,0.75,0]];outlineConnect=0;fontColor=#232F3E;fillColor=#E7157B;strokeColor=#ffffff;dashed=0;verticalLabelPosition=bottom;verticalAlign=top;align=center;html=1;fontSize=12;fontStyle=0;aspect=fixed;shape=mxgraph.aws4.resourceIcon;resIcon=mxgraph.aws4.application_integration;" vertex="1" parent="1">
          <mxGeometry x="680" y="200" width="120" height="120" as="geometry" />
        </mxCell>
        <mxCell id="pbghTy7w4NZwHaQQN_qX-7" value="" style="sketch=0;pointerEvents=1;shadow=0;dashed=0;html=1;strokeColor=#6c8ebf;fillColor=#dae8fc;labelPosition=center;verticalLabelPosition=bottom;verticalAlign=top;outlineConnect=0;align=center;shape=mxgraph.office.concepts.script;" vertex="1" parent="1">
          <mxGeometry x="357" y="410.5" width="53" height="49" as="geometry" />
        </mxCell>
        <mxCell id="pbghTy7w4NZwHaQQN_qX-8" value="" style="sketch=0;pointerEvents=1;shadow=0;dashed=0;html=1;strokeColor=#6c8ebf;fillColor=#dae8fc;labelPosition=center;verticalLabelPosition=bottom;verticalAlign=top;outlineConnect=0;align=center;shape=mxgraph.office.concepts.script;" vertex="1" parent="1">
          <mxGeometry x="367" y="446" width="53" height="49" as="geometry" />
        </mxCell>
        <mxCell id="pbghTy7w4NZwHaQQN_qX-9" value="" style="sketch=0;pointerEvents=1;shadow=0;dashed=0;html=1;strokeColor=#6c8ebf;fillColor=#dae8fc;labelPosition=center;verticalLabelPosition=bottom;verticalAlign=top;outlineConnect=0;align=center;shape=mxgraph.office.concepts.script;" vertex="1" parent="1">
          <mxGeometry x="387" y="481.5" width="53" height="49" as="geometry" />
        </mxCell>
        <mxCell id="pbghTy7w4NZwHaQQN_qX-10" value="" style="sketch=0;pointerEvents=1;shadow=0;dashed=0;html=1;strokeColor=#82b366;fillColor=#d5e8d4;labelPosition=center;verticalLabelPosition=bottom;verticalAlign=top;outlineConnect=0;align=center;shape=mxgraph.office.concepts.script;" vertex="1" parent="1">
          <mxGeometry x="605.25" y="410.5" width="53" height="49" as="geometry" />
        </mxCell>
        <mxCell id="pbghTy7w4NZwHaQQN_qX-11" value="" style="sketch=0;pointerEvents=1;shadow=0;dashed=0;html=1;strokeColor=#b85450;fillColor=#f8cecc;labelPosition=center;verticalLabelPosition=bottom;verticalAlign=top;outlineConnect=0;align=center;shape=mxgraph.office.concepts.script;" vertex="1" parent="1">
          <mxGeometry x="615.25" y="446" width="53" height="49" as="geometry" />
        </mxCell>
        <mxCell id="pbghTy7w4NZwHaQQN_qX-12" value="" style="sketch=0;pointerEvents=1;shadow=0;dashed=0;html=1;strokeColor=#82b366;fillColor=#d5e8d4;labelPosition=center;verticalLabelPosition=bottom;verticalAlign=top;outlineConnect=0;align=center;shape=mxgraph.office.concepts.script;" vertex="1" parent="1">
          <mxGeometry x="635.25" y="481.5" width="53" height="49" as="geometry" />
        </mxCell>
        <mxCell id="pbghTy7w4NZwHaQQN_qX-13" value="OSCAL document provides configuration metadata for test scripts" style="text;html=1;align=center;verticalAlign=middle;whiteSpace=wrap;rounded=0;fillColor=#bac8d3;strokeColor=#23445d;" vertex="1" parent="1">
          <mxGeometry x="120" y="100" width="140" height="60" as="geometry" />
        </mxCell>
        <mxCell id="pbghTy7w4NZwHaQQN_qX-14" value="Service Test Scripts" style="text;html=1;align=center;verticalAlign=middle;whiteSpace=wrap;rounded=0;" vertex="1" parent="1">
          <mxGeometry x="253" y="330" width="67" height="30" as="geometry" />
        </mxCell>
        <mxCell id="pbghTy7w4NZwHaQQN_qX-15" value="Testing Framework" style="text;html=1;align=center;verticalAlign=middle;whiteSpace=wrap;rounded=0;" vertex="1" parent="1">
          <mxGeometry x="480" y="160" width="60" height="30" as="geometry" />
        </mxCell>
        <mxCell id="pbghTy7w4NZwHaQQN_qX-16" value="Target Application" style="text;html=1;align=center;verticalAlign=middle;whiteSpace=wrap;rounded=0;" vertex="1" parent="1">
          <mxGeometry x="710" y="160" width="60" height="30" as="geometry" />
        </mxCell>
        <mxCell id="pbghTy7w4NZwHaQQN_qX-17" value="Secuity Assessment Information" style="text;html=1;align=center;verticalAlign=middle;whiteSpace=wrap;rounded=0;" vertex="1" parent="1">
          <mxGeometry x="363.5" y="540.5" width="60" height="40" as="geometry" />
        </mxCell>
        <mxCell id="pbghTy7w4NZwHaQQN_qX-18" value="Security Test Result Information" style="text;html=1;align=center;verticalAlign=middle;whiteSpace=wrap;rounded=0;" vertex="1" parent="1">
          <mxGeometry x="600" y="545.5" width="83.5" height="30" as="geometry" />
        </mxCell>
        <mxCell id="pbghTy7w4NZwHaQQN_qX-19" value="Test Scripts define technical details of security test procedures" style="text;html=1;align=center;verticalAlign=middle;whiteSpace=wrap;rounded=0;fontFamily=Helvetica;fontSize=12;fillColor=#bac8d3;strokeColor=#23445d;" vertex="1" parent="1">
          <mxGeometry x="313" y="100" width="140" height="60" as="geometry" />
        </mxCell>
        <mxCell id="pbghTy7w4NZwHaQQN_qX-20" value="Testing Framework Executes functional and security tests" style="text;html=1;align=center;verticalAlign=middle;whiteSpace=wrap;rounded=0;fillColor=#bac8d3;strokeColor=#23445d;" vertex="1" parent="1">
          <mxGeometry x="560" y="100" width="140" height="60" as="geometry" />
        </mxCell>
        <mxCell id="pbghTy7w4NZwHaQQN_qX-21" value="Testing Framework exports security results in OSCAL format for integration into GRC tooling" style="text;html=1;align=center;verticalAlign=bottom;whiteSpace=wrap;rounded=0;fillColor=#bac8d3;strokeColor=#23445d;" vertex="1" parent="1">
          <mxGeometry x="435" y="370" width="150" height="80" as="geometry" />
        </mxCell>
        <mxCell id="pbghTy7w4NZwHaQQN_qX-25" value="OSCAL Security Document Information" style="text;html=1;align=center;verticalAlign=middle;whiteSpace=wrap;rounded=0;" vertex="1" parent="1">
          <mxGeometry x="35.75" y="330" width="98.5" height="30" as="geometry" />
        </mxCell>
        <mxCell id="pbghTy7w4NZwHaQQN_qX-26" value="4" style="ellipse;whiteSpace=wrap;html=1;aspect=fixed;fontSize=18;fontStyle=3;fontColor=#FFFFFF;fillColor=#030303;" vertex="1" parent="1">
          <mxGeometry x="420" y="360" width="29" height="29" as="geometry" />
        </mxCell>
        <mxCell id="pbghTy7w4NZwHaQQN_qX-27" value="3" style="ellipse;whiteSpace=wrap;html=1;aspect=fixed;fontSize=18;fontStyle=3;fontColor=#FFFFFF;fillColor=#030303;" vertex="1" parent="1">
          <mxGeometry x="550" y="90" width="29" height="29" as="geometry" />
        </mxCell>
        <mxCell id="pbghTy7w4NZwHaQQN_qX-28" value="2" style="ellipse;whiteSpace=wrap;html=1;aspect=fixed;fontSize=18;fontStyle=3;fontColor=#FFFFFF;fillColor=#030303;" vertex="1" parent="1">
          <mxGeometry x="300" y="90" width="29" height="29" as="geometry" />
        </mxCell>
        <mxCell id="pbghTy7w4NZwHaQQN_qX-29" value="1" style="ellipse;whiteSpace=wrap;html=1;aspect=fixed;fontSize=18;fontStyle=3;fontColor=#FFFFFF;fillColor=#030303;" vertex="1" parent="1">
          <mxGeometry x="105.25" y="90" width="29" height="29" as="geometry" />
        </mxCell>
      </root>
    </mxGraphModel>
  </diagram>
</mxfile>
